<?xml version="1.0" standalone="no"?>
<!DOCTYPE svg PUBLIC "-//W3C//DTD SVG 1.1//EN" "http://www.w3.org/Graphics/SVG/1.1/DTD/svg11.dtd" >
<svg xmlns="http://www.w3.org/2000/svg" xmlns:xlink="http://www.w3.org/1999/xlink" version="1.1">
<metadata>
Created by FontForge 20161003 at Mon Oct 16 12:15:38 2017
 By www-data
Copyright (c) 2013 by Style-7. All rights reserved. http://www.styleseven.com
</metadata>
<defs>
<font id="basic_sans_serif_7" horiz-adv-x="1200" >
  <font-face 
    font-family="basic_sans_serif_7"
    font-weight="400"
    font-stretch="normal"
    units-per-em="2048"
    panose-1="2 0 5 0 0 0 0 0 0 0"
    ascent="1638"
    descent="-410"
    x-height="1100"
    cap-height="1500"
    bbox="-200 -500 1802 2100"
    underline-thickness="100"
    underline-position="-500"
    unicode-range="U+0020-2122"
  />
<missing-glyph horiz-adv-x="1001" 
 />
    <glyph glyph-name=".notdef" horiz-adv-x="1001" 
 />
    <glyph glyph-name=".null" horiz-adv-x="0" 
 />
    <glyph glyph-name="nonmarkingreturn" horiz-adv-x="682" 
 />
    <glyph glyph-name="space" unicode=" " horiz-adv-x="1001" 
 />
    <glyph glyph-name="exclam" unicode="!" horiz-adv-x="400" 
d="M200 1500v-1100h-200v1100h200zM200 200v-200h-200v200h200z" />
    <glyph glyph-name="quotedbl" unicode="&#x22;" horiz-adv-x="800" 
d="M200 1500v-400h-200v400h200zM600 1500v-400h-200v400h200z" />
    <glyph glyph-name="numbersign" unicode="#" 
d="M400 1500v-300h200v300h200v-300h200v-200h-200v-500h200v-200h-200v-300h-200v300h-200v-300h-200v300h-200v200h200v500h-200v200h200v300h200zM400 1000v-500h200v500h-200z" />
    <glyph glyph-name="dollar" unicode="$" horiz-adv-x="1201" 
d="M800 1100q0 200 -300 200t-300 -200t300 -200q500 0 500 -400v-100q0 -400 -500 -400t-500 400h200q0 -200 300 -200t300 200v100q0 200 -300 200q-500 0 -500 300v100q0 400 500 400t500 -400h-200zM543 1700v-1900h-97v1900h97z" />
    <glyph glyph-name="percent" unicode="%" 
d="M1000 1500l-800 -1500h-200l800 1500h200zM400 1300q0 -83 -58.5 -141.5t-141.5 -58.5t-141.5 58.5t-58.5 141.5t58.5 141.5t141.5 58.5t141.5 -58.5t58.5 -141.5zM200 1400q-41 0 -70.5 -29.5t-29.5 -70.5t29.5 -70.5t70.5 -29.5t70.5 29.5t29.5 70.5t-29.5 70.5
t-70.5 29.5zM1000 200q0 -83 -58.5 -141.5t-141.5 -58.5t-141.5 58.5t-58.5 141.5t58.5 141.5t141.5 58.5t141.5 -58.5t58.5 -141.5zM800 300q-41 0 -70.5 -29.5t-29.5 -70.5t29.5 -70.5t70.5 -29.5t70.5 29.5t29.5 70.5t-29.5 70.5t-70.5 29.5z" />
    <glyph glyph-name="ampersand" unicode="&#x26;" horiz-adv-x="1400" 
d="M1000 500q0 -500 -500 -500t-500 500q0 200 200 300q-100 100 -100 200v200q0 300 400 300t400 -300v-200q0 -100 -100 -200q200 -100 200 -300zM800 500q0 200 -300 200t-300 -200q0 -300 300 -300t300 300zM500 900q200 0 201 150l-1 150q0 100 -200 100
q-201 0 -200 -100v-200q0 -100 200 -100zM1200 200v-200h-700v200h700zM1200 900v-200h-400v200h400z" />
    <glyph glyph-name="quotesingle" unicode="'" horiz-adv-x="400" 
d="M200 1500v-400h-200v400h200z" />
    <glyph glyph-name="parenleft" unicode="(" horiz-adv-x="700" 
d="M500 1200q-300 0 -300 -200v-600q0 -200 300 -200v-200q-500 0 -500 400v600q0 400 500 400v-200z" />
    <glyph glyph-name="parenright" unicode=")" horiz-adv-x="700" 
d="M0 1400q500 0 500 -400v-600q0 -400 -500 -400v200q300 0 300 200v600q0 200 -300 200v200z" />
    <glyph glyph-name="asterisk" unicode="*" 
d="M752 1300l84 -84l-167 -334h334v-167h-334l167 -334l-84 -84l-250 334l-251 -334l-84 84l167 334h-334v167h334l-167 334l84 84l251 -334z" />
    <glyph glyph-name="plus" unicode="+" 
d="M1000 900v-200h-1000v200h1000zM600 1300v-1000h-200v1000h200z" />
    <glyph glyph-name="comma" unicode="," horiz-adv-x="500" 
d="M0 354q0 146 147 146q146 0 146 -146v-147l7 -206h-73l-80 206q-147 0 -147 147z" />
    <glyph glyph-name="hyphen" unicode="-" horiz-adv-x="1201" 
d="M1000 900v-200h-1000v200h1000z" />
    <glyph glyph-name="period" unicode="." horiz-adv-x="500" 
d="M300 149q0 -63 -44 -107t-107 -44t-107 44t-44 107t44 107t107 44t107 -44t44 -107z" />
    <glyph glyph-name="slash" unicode="/" 
d="M1000 1500l-800 -1500h-200l800 1500h200z" />
    <glyph glyph-name="zero" unicode="0" 
d="M0 1100q0 400 500 400t500 -400v-700q0 -400 -500 -400t-500 400v700zM800 1000v100q0 200 -300 200t-300 -200v-400zM200 500v-100q0 -200 300 -200t300 200v400z" />
    <glyph glyph-name="one" unicode="1" horiz-adv-x="1001" 
d="M0 1300q300 0 300 200h200v-1300h300v-200h-800v200h300v900h-300v200z" />
    <glyph glyph-name="two" unicode="2" 
d="M0 0q0 800 500 800q300 0 300 300q0 200 -300 200t-300 -200h-200q0 400 500 400t500 -400q0 -500 -500 -500q-300 0 -300 -400h800v-200h-1000z" />
    <glyph glyph-name="three" unicode="3" 
d="M200 1100h-200q0 400 500 400t500 -400q0 -200 -200 -300q200 -100 200 -200v-200q0 -400 -500 -400t-500 400h200q0 -200 300 -200t300 200q0 300 -200 300h-200v200h200q200 0 200 200t-300 200t-300 -200z" />
    <glyph glyph-name="four" unicode="4" 
d="M0 1500h200v-700h600v700h200v-1500h-200v600h-800v900z" />
    <glyph glyph-name="five" unicode="5" 
d="M1000 1500v-200h-800v-300h300q500 0 500 -400v-200q0 -400 -500 -400t-500 400h200q0 -200 300 -200t300 201v199q0 200 -300 200h-500v700h1000z" />
    <glyph glyph-name="six" unicode="6" 
d="M1000 500v-100q0 -400 -500 -400t-500 400v700q0 400 500 400t500 -400h-200q0 200 -300 200t-300 -200v-200h300q500 0 500 -400zM500 700h-300v-300q0 -200 300 -200t300 200v100q0 200 -300 200z" />
    <glyph glyph-name="seven" unicode="7" 
d="M0 1500h1000l-500 -1500h-200l400 1300h-700v200z" />
    <glyph glyph-name="eight" unicode="8" 
d="M1000 500q0 -500 -500 -500t-500 500q0 200 200 300q-100 50 -149 200v200q49 300 449 300t448 -302v-200q-48 -152 -148 -198q200 -100 200 -300zM800 500q0 200 -300 200t-300 -200q0 -300 300 -300t300 300zM500 900q200 0 248 100v198q-48 102 -248 102
q-201 0 -249 -100v-200q49 -100 249 -100z" />
    <glyph glyph-name="nine" unicode="9" 
d="M0 1000v100q0 400 500 400t500 -400v-700q0 -400 -500 -400t-500 400h200q0 -200 300 -200t300 200v200h-300q-500 0 -500 400zM500 800h300v300q0 200 -300 200t-300 -200v-100q0 -200 300 -200z" />
    <glyph glyph-name="colon" unicode=":" horiz-adv-x="500" 
d="M299 1051q0 -62 -44 -106t-105 -44q-62 0 -106 44t-44 106q0 61 44 105t106 44q61 0 105 -44t44 -105zM302 451q0 -63 -44 -107t-107 -44t-107 44t-44 107t44 107t107 44t107 -44t44 -107z" />
    <glyph glyph-name="semicolon" unicode=";" horiz-adv-x="499" 
d="M299 1051q0 -62 -44 -106t-105 -44q-62 0 -106 44t-44 106q0 61 44 105t106 44q61 0 105 -44t44 -105zM0 354q0 146 147 146q146 0 146 -146v-147l7 -206h-73l-80 206q-147 0 -147 147z" />
    <glyph glyph-name="less" unicode="&#x3c;" horiz-adv-x="1000" 
d="M0 600v200l800 400v-248l-600 -252l600 -253v-247z" />
    <glyph glyph-name="equal" unicode="=" 
d="M1000 1100v-200h-1000v200h1000zM1000 700v-200h-1000v200h1000z" />
    <glyph glyph-name="greater" unicode="&#x3e;" horiz-adv-x="1000" 
d="M0 200v247l600 253l-600 252v248l800 -400v-200z" />
    <glyph glyph-name="question" unicode="?" 
d="M300 400q0 400 400 400q100 0 100 300q0 200 -300 200t-300 -200h-200q0 400 500 400t500 -400q0 -500 -200 -500q-300 0 -300 -200h-200zM500 200v-200h-200v200h200z" />
    <glyph glyph-name="at" unicode="@" 
d="M1000 0h-500q-500 0 -500 400v700q0 400 500 400t500 -400v-300q0 -400 -500 -400v200q300 0 300 200v300q0 200 -300 200t-300 -200v-700q0 -200 300 -200h500v-200z" />
    <glyph glyph-name="A" unicode="A" 
d="M0 0v1100q0 400 500 400t500 -400v-1100h-200v600h-600v-600h-200zM800 800v300q0 200 -300 200t-300 -200v-300h600z" />
    <glyph glyph-name="B" unicode="B" 
d="M1000 500q0 -500 -500 -500h-500v1500h500q400 0 400 -400q0 -200 -100 -300q200 -100 200 -300zM800 500q0 200 -300 200h-300v-500h300q300 0 300 300zM200 900h300q200 0 200 200t-200 200h-300v-400z" />
    <glyph glyph-name="C" unicode="C" 
d="M0 400v700q0 400 500 400t500 -400h-200q0 200 -300 200t-300 -200v-700q0 -200 300 -200t300 200h200q0 -400 -500 -400t-500 400z" />
    <glyph glyph-name="D" unicode="D" 
d="M0 1500h500q500 0 500 -400v-700q0 -400 -500 -400h-500v1500zM200 200h300q300 0 300 200v700q0 200 -300 200h-300v-1100z" />
    <glyph glyph-name="E" unicode="E" 
d="M0 0v1500h1000v-200h-800v-400h600v-200h-600v-500h800v-200h-1000z" />
    <glyph glyph-name="F" unicode="F" 
d="M0 0v1500h1000v-200h-800v-400h600v-200h-600v-700h-200z" />
    <glyph glyph-name="G" unicode="G" 
d="M0 400v700q0 400 500 400t500 -400h-200q0 200 -300 200t-300 -200v-700q0 -200 300 -200t300 200v100h-200v200h400v-300q0 -400 -500 -400t-500 400z" />
    <glyph glyph-name="H" unicode="H" 
d="M0 1500h200v-600h600v600h200v-1500h-200v700h-600v-700h-200v1500z" />
    <glyph glyph-name="I" unicode="I" horiz-adv-x="400" 
d="M200 1500v-1500h-200v1500h200z" />
    <glyph glyph-name="J" unicode="J" 
d="M200 600v-200q0 -200 300 -200t300 200v1100h200v-1100q0 -400 -500 -400t-500 400v200h200z" />
    <glyph glyph-name="K" unicode="K" 
d="M0 1500h200v-600l551 600h249l-500 -600l500 -900h-300l-362 732l-138 -159v-573h-200v1500z" />
    <glyph glyph-name="L" unicode="L" 
d="M0 1500h200v-1300h800v-200h-1000v1500z" />
    <glyph glyph-name="M" unicode="M" 
d="M0 0v1500h200v0l300 -400l300 400v0h200v-1500h-200v1200l-300 -400l-300 400v-1200h-200z" />
    <glyph glyph-name="N" unicode="N" 
d="M200 0h-200v1500h200v0l600 -1100v1100h200v-1500h-200v0l-600 1100v-1100z" />
    <glyph glyph-name="O" unicode="O" 
d="M0 1100q0 400 500 400t500 -400v-700q0 -400 -500 -400t-500 400v700zM200 400q0 -200 300 -200t300 200v700q0 200 -300 200t-300 -200v-700z" />
    <glyph glyph-name="P" unicode="P" 
d="M0 1500h500q500 0 500 -400v-100q0 -400 -500 -400h-300v-600h-200v1500zM200 800h300q300 0 300 200v100q0 200 -300 200h-300v-500z" />
    <glyph glyph-name="Q" unicode="Q" horiz-adv-x="1201" 
d="M0 1100q0 400 500 400t500 -400v-1200h-200v100h-300q-500 0 -500 400v700zM200 400q0 -200 300 -200h300v900q0 200 -300 200t-300 -200v-700z" />
    <glyph glyph-name="R" unicode="R" 
d="M0 1500h500q500 0 500 -400v-100q0 -400 -400 -400l200 -300l200 -300h-246l-404 600h-150v-600h-200v1500zM200 800h300q300 0 300 200v100q0 200 -300 200h-300v-500z" />
    <glyph glyph-name="S" unicode="S" 
d="M800 1100q0 200 -300 200t-300 -200t300 -200q500 0 500 -400v-100q0 -400 -500 -400t-500 400h200q0 -200 300 -200t300 200v100q0 200 -300 200q-500 0 -500 300v100q0 400 500 400t500 -400h-200v0z" />
    <glyph glyph-name="T" unicode="T" 
d="M0 1500h1000v-200h-400v-1300h-200v1300h-400v200z" />
    <glyph glyph-name="U" unicode="U" 
d="M200 1500v-1100q0 -200 300 -200t300 200v1100h200v-1100q0 -400 -500 -400t-500 400v1100h200z" />
    <glyph glyph-name="V" unicode="V" 
d="M0 1500h256l244 -1100l247 1100h253l-400 -1500h-200z" />
    <glyph glyph-name="W" unicode="W" horiz-adv-x="2000" 
d="M253 1500l247 -1053l274 1053h264l262 -1059l250 1059h250l-400 -1500h-200l-300 1300l-300 -1300h-200l-400 1500h253z" />
    <glyph glyph-name="X" unicode="X" 
d="M0 1500h250l250 -500l247 500h253l-359 -700l359 -800h-247l-253 600l-253 -600h-247l370 800z" />
    <glyph glyph-name="Y" unicode="Y" 
d="M0 1500h250l250 -500l247 500h253l-400 -800v-700h-200v700z" />
    <glyph glyph-name="Z" unicode="Z" 
d="M0 1500h1000v-300l-800 -1000h800v-200h-1000v300l800 1000h-800v200z" />
    <glyph glyph-name="bracketleft" unicode="[" horiz-adv-x="700" 
d="M500 1200h-300v-1000h300v-200h-500v1400h500v-200z" />
    <glyph glyph-name="backslash" unicode="\" 
d="M200 1500l800 -1500h-200l-800 1500h200z" />
    <glyph glyph-name="bracketright" unicode="]" horiz-adv-x="700" 
d="M0 1400h500v-1400h-500v200h300v1000h-300v200z" />
    <glyph glyph-name="asciicircum" unicode="^" 
d="M364 1500h181l455 -800h-225l-320 600l-230 -600h-225z" />
    <glyph glyph-name="underscore" unicode="_" 
d="M1000 200v-200h-1000v200h1000z" />
    <glyph glyph-name="grave" unicode="`" horiz-adv-x="1024" 
 />
    <glyph glyph-name="a" unicode="a" 
d="M100 900v200h400q500 0 500 -400v-700h-500q-500 0 -500 300v100q0 300 500 300h300q0 200 -300 200h-400zM797 500h-300q-300 0 -294 -150q-3 -150 297 -150h300z" />
    <glyph glyph-name="b" unicode="b" 
d="M0 0v1500h200v-400h300q500 0 500 -400v-200q0 -500 -500 -500h-500zM200 200h300q300 0 300 200v300q0 200 -300 200h-300v-700z" />
    <glyph glyph-name="c" unicode="c" 
d="M0 400v300q0 400 500 400t500 -400h-200q0 200 -300 200t-300 -200v-300q0 -200 300 -200t300 200h200q0 -400 -500 -400t-500 400z" />
    <glyph glyph-name="d" unicode="d" 
d="M500 0q-500 0 -500 500v200q0 400 500 400h300v400h200v-1500h-500zM800 900h-300q-300 0 -300 -200v-300q0 -200 300 -200h300v700z" />
    <glyph glyph-name="e" unicode="e" 
d="M900 200v-200h-400q-500 0 -500 400v300q0 400 500 400t500 -300v-100q0 -300 -500 -300h-300q0 -200 300 -200h400zM203 600h300q300 0 294 150q3 150 -297 150t-298 -150z" />
    <glyph glyph-name="f" unicode="f" horiz-adv-x="1000" 
d="M200 900h-200v200h200q0 400 500 400h100v-200h-100q-300 0 -300 -200h300v-200h-300v-900h-200v900z" />
    <glyph glyph-name="g" unicode="g" 
d="M1000 1100v-1100q0 -400 -500 -400h-300v200h300q300 0 300 200h-300q-500 0 -500 400v200q0 500 500 500h500zM800 900h-300q-300 0 -300 -200v-300q0 -200 300 -200h300v700z" />
    <glyph glyph-name="h" unicode="h" 
d="M200 0h-200v1500h200v-400h300q500 0 500 -400v-700h-200v700q0 200 -300 200h-300v-900z" />
    <glyph glyph-name="i" unicode="i" horiz-adv-x="400" 
d="M200 1100v-1100h-200v1100h200zM200 1500v-200h-200v200h200z" />
    <glyph glyph-name="j" unicode="j" horiz-adv-x="800" 
d="M600 0q0 -400 -500 -400h-100v200h100q300 0 300 200v1100h200v-1100zM600 1500v-200h-200v200h200z" />
    <glyph glyph-name="k" unicode="k" 
d="M0 1500h200v-873l451 473h249l-400 -473l500 -627h-300l-362 459l-138 -124v-335h-200v1500z" />
    <glyph glyph-name="l" unicode="l" horiz-adv-x="800" 
d="M0 1500h400v-1300h200v-200h-400v1300h-200v200z" />
    <glyph glyph-name="m" unicode="m" horiz-adv-x="1600" 
d="M200 0h-200v1100h300q500 0 500 -400v-700h-200v700q0 200 -300 200h-100v-900zM800 0h-200v700q0 400 300 400q500 0 500 -400v-700h-200v700q0 200 -300 200q-100 0 -100 -200v-700z" />
    <glyph glyph-name="n" unicode="n" 
d="M200 0h-200v1100h500q500 0 500 -400v-700h-200v700q0 200 -300 200h-300v-900z" />
    <glyph glyph-name="o" unicode="o" 
d="M0 700q0 400 500 400t500 -400v-300q0 -400 -500 -400t-500 400v300zM200 400q0 -200 300 -200t300 200v300q0 200 -300 200t-300 -200v-300z" />
    <glyph glyph-name="p" unicode="p" 
d="M500 1100q500 0 500 -500v-200q0 -400 -500 -400h-300v-400h-200v1500h500zM200 200h300q300 0 300 200v300q0 200 -300 200h-300v-700z" />
    <glyph glyph-name="q" unicode="q" 
d="M1000 1100v-1500h-200v400h-300q-500 0 -500 400v200q0 500 500 500h500zM800 900h-300q-300 0 -300 -200v-300q0 -200 300 -200h300v700z" />
    <glyph glyph-name="r" unicode="r" 
d="M200 0h-200v1100h500q500 0 500 -400v-100h-200v100q0 200 -300 200h-300v-900z" />
    <glyph glyph-name="s" unicode="s" 
d="M800 800q0 100 -300 100t-300 -147q0 -100 300 -100q500 0 500 -301q0 -352 -500 -352t-500 300h200q0 -100 300 -100t300 143q0 157 -300 110q-500 0 -500 300q0 347 500 347t500 -300h-200v0z" />
    <glyph glyph-name="t" unicode="t" horiz-adv-x="1000" 
d="M200 1500h200v-400h300v-200h-300v-500q0 -200 300 -200h100v-200h-100q-500 0 -500 400v500h-200v200h200v400z" />
    <glyph glyph-name="u" unicode="u" 
d="M200 1100v-700q0 -200 300 -200t300 200v700h200v-700q0 -400 -500 -400t-500 400v700h200z" />
    <glyph glyph-name="v" unicode="v" 
d="M0 1100h256l244 -800l247 800h253l-400 -1100h-200z" />
    <glyph glyph-name="w" unicode="w" horiz-adv-x="2000" 
d="M200 1100l300 -800l300 800h200l300 -800l300 800h200l-400 -1100h-200l-300 900l-300 -900h-200l-400 1100h200z" />
    <glyph glyph-name="x" unicode="x" 
d="M3 1100h250l247 -400l250 400h253l-362 -500l359 -600h-247l-253 500l-253 -500h-247l370 600z" />
    <glyph glyph-name="y" unicode="y" 
d="M0 1100h200v-700q0 -200 300 -200h300v900h200v-1100q0 -400 -500 -400h-300v200h300q300 0 300 200h-300q-500 0 -500 400v700z" />
    <glyph glyph-name="z" unicode="z" 
d="M0 1100h1000v-300l-800 -600h800v-200h-1000v300l800 600h-800v200z" />
    <glyph glyph-name="braceleft" unicode="{" horiz-adv-x="900" 
d="M700 1200q-300 0 -300 -200q0 -100 -100 -300q100 -200 100 -300q0 -200 300 -200v-200q-500 0 -500 400q0 200 -200 300q200 100 200 300q0 400 500 400v-200z" />
    <glyph glyph-name="bar" unicode="|" horiz-adv-x="400" 
d="M200 1500v-1500h-200v1500h200z" />
    <glyph glyph-name="braceright" unicode="}" horiz-adv-x="900" 
d="M0 1400q500 0 500 -400q0 -200 200 -300q-200 -100 -200 -300q0 -400 -500 -400v200q300 0 300 200q0 100 100 300q-100 200 -100 300q0 200 -300 200v200z" />
    <glyph glyph-name="asciitilde" unicode="~" 
d="M200 600h-200v100q0 400 300 400q200 0 300 -200q0 -200 100 -185q100 -15 100 185v100h200v-100q0 -400 -300 -400q-200 0 -250 200t-150 200t-100 -200v-100z" />
    <glyph glyph-name="exclamdown" unicode="&#xa1;" horiz-adv-x="400" 
d="M0 0v1100h200v-1100h-200zM0 1300v200h200v-200h-200z" />
    <glyph glyph-name="cent" unicode="&#xa2;" 
d="M0 400v300q0 400 500 400t500 -400h-200q0 200 -300 200t-300 -200v-300q0 -200 300 -200t300 200h200q0 -400 -500 -400t-500 400zM700 1500l-300 -1900h-100l300 1900h100z" />
    <glyph glyph-name="sterling" unicode="&#xa3;" horiz-adv-x="1000" 
d="M200 900h-200v200h200q0 400 500 400h100v-200h-100q-300 0 -300 -200h300v-200h-300v-700h300v-200h-700v200h200v700z" />
    <glyph glyph-name="currency" unicode="&#xa4;" horiz-adv-x="1000" 
d="M700 700q0 -124 -88 -212t-212 -88t-212 88t-88 212t88 212t212 88t212 -88t88 -212zM403 853q-62 0 -106 -45t-44 -108t44 -108t106 -45q61 0 105 45t44 108t-44 108t-105 45zM800 1100v-200h-200v200h200zM600 300v200h200v-200h-200zM200 1100v-200h-200v200h200z
M200 500v-200h-200v200h200z" />
    <glyph glyph-name="yen" unicode="&#xa5;" 
d="M0 1500h250l250 -500l247 500h253l-400 -800v-700h-200v700zM1000 800v-100h-1000v100h1000zM1000 500v-100h-1000v100h1000z" />
    <glyph glyph-name="brokenbar" unicode="&#xa6;" horiz-adv-x="400" 
d="M200 1500v-604h-200v604h200zM200 600v-600h-200v600h200z" />
    <glyph glyph-name="section" unicode="&#xa7;" 
d="M800 1100q0 200 -300 200t-300 -200q0 -100 300 -100q500 0 500 -400v-200q0 -400 -500 -400t-500 400h200q0 -200 300 -200t300 200q0 100 -300 100q-500 100 -500 300v300q0 400 500 400t500 -400h-200zM500 900q-300 0 -300 -100q0 -200 300 -200q300 -47 300 100
q0 200 -300 200z" />
    <glyph glyph-name="dieresis" unicode="&#xa8;" horiz-adv-x="800" 
d="M200 1500v-200h-200v200h200zM600 1500v-200h-200v200h200z" />
    <glyph glyph-name="copyright" unicode="&#xa9;" horiz-adv-x="1900" 
d="M448 428v245q0 328 410 328q409 0 409 -328h-164q0 164 -245 164q-246 0 -246 -164v-245q0 -164 246 -164q245 0 245 164h164q0 -328 -409 -328q-410 0 -410 328zM1700 544q0 -395 -249 -674t-601 -279t-601 279t-249 674t249 674t601 279t601 -279t249 -674zM850 1300
q-269 0 -459.5 -219.5t-190.5 -530.5t190.5 -530.5t459.5 -219.5t459.5 219.5t190.5 530.5t-190.5 530.5t-459.5 219.5z" />
    <glyph glyph-name="ordfeminine" unicode="&#xaa;" horiz-adv-x="1000" 
d="M161 1258h-161q0 242 403 242t403 -322v-565h-403q-403 0 -403 242v81q0 242 403 242h242q0 161 -242 161t-242 -81zM642 1016h-241q-242 0 -237 -120q-3 -121 239 -121h242z" />
    <glyph glyph-name="guillemotleft" unicode="&#xab;" 
d="M0 600v200l500 448v-248l-300 -300l300 -300v-247zM500 600v200l500 448v-248l-300 -300l300 -300v-247z" />
    <glyph glyph-name="logicalnot" unicode="&#xac;" 
d="M0 1500h1000v-400h-200v200h-800v200z" />
    <glyph glyph-name="uni00AD" unicode="&#xad;" horiz-adv-x="1201" 
d="M1000 900v-200h-1000v200h1000z" />
    <glyph glyph-name="registered" unicode="&#xae;" horiz-adv-x="1900" 
d="M1700 544q0 -395 -249 -674t-601 -279t-601 279t-249 674t249 674t601 279t601 -279t249 -674zM850 1300q-269 0 -459.5 -219.5t-190.5 -530.5t190.5 -530.5t459.5 -219.5t459.5 219.5t190.5 530.5t-190.5 530.5t-459.5 219.5zM556 1000h302q301 0 301 -241v-60
q0 -242 -241 -242l120 -181l121 -180h-148l-244 361h-90v-361h-121v904zM696 579h168q169 0 169 113v56q0 112 -169 112h-168v-281z" />
    <glyph glyph-name="macron" unicode="&#xaf;" 
d="M1000 1400v-200h-1000v200h1000z" />
    <glyph glyph-name="degree" unicode="&#xb0;" horiz-adv-x="900" 
d="M700 1150q0 -145 -102.5 -247.5t-247.5 -102.5t-247.5 102.5t-102.5 247.5t102.5 247.5t247.5 102.5t247.5 -102.5t102.5 -247.5zM350 1400q-104 0 -177 -73t-73 -177t73 -177t177 -73t177 73t73 177t-73 177t-177 73z" />
    <glyph glyph-name="plusminus" unicode="&#xb1;" 
d="M1000 1000v-200h-1000v200h1000zM600 1400v-1000h-200v1000h200zM1000 200v-200h-1000v200h1000z" />
    <glyph glyph-name="uni00B2" unicode="&#xb2;" horiz-adv-x="600" 
d="M4 900q0 317 198 317q119 0 119 119q0 79 -119 79t-119 -79h-79q0 158 198 158t198 -158q0 -198 -198 -198q-119 0 -119 -159h317v-79h-396z" />
    <glyph glyph-name="uni00B3" unicode="&#xb3;" horiz-adv-x="600" 
d="M80 1339h-80q0 161 201 161t201 -161q0 -80 -80 -120q80 -41 80 -81v-80q0 -161 -201 -161t-201 161h80q0 -81 121 -81t121 81q0 120 -81 120h-80v81h80q81 0 81 80q0 81 -121 81t-121 -81z" />
    <glyph glyph-name="acute" unicode="&#xb4;" horiz-adv-x="700" 
d="M500 1500l-300 -500h-200l300 500h200z" />
    <glyph glyph-name="mu" unicode="&#xb5;" 
d="M200 1100v-600q200 -300 300 -300t300 300v600h200v-1200h-200v400q-100 -300 -300 -300t-300 300v-700h-200v1500h200z" />
    <glyph glyph-name="paragraph" unicode="&#xb6;" 
d="M200 1000q-200 0 -200 200t200 200h800v-200h-200v-1200h-200v1200h-200v-1200h-200v1000z" />
    <glyph glyph-name="periodcentered" unicode="&#xb7;" horiz-adv-x="500" 
d="M300 749q0 -63 -44 -107t-107 -44t-107 44t-44 107t44 107t107 44t107 -44t44 -107z" />
    <glyph glyph-name="cedilla" unicode="&#xb8;" horiz-adv-x="1000" 
d="M600 0l128 -100q127 -61 114 -273q-42 -127 -142 -127q-300 0 -500 300l300 -100q300 -64 100 100l-200 200h200z" />
    <glyph glyph-name="uni00B9" unicode="&#xb9;" horiz-adv-x="500" 
d="M0 1419q121 0 121 81h80v-524h121v-80h-322v80h121v363h-121v80z" />
    <glyph glyph-name="ordmasculine" unicode="&#xba;" horiz-adv-x="600" 
d="M0 1340q0 160 200 160q199 0 199 -160v-279q0 -159 -199 -159q-200 0 -200 159v279zM80 1061q0 -80 120 -80q119 0 119 80v279q0 80 -119 80q-120 0 -120 -80v-279z" />
    <glyph glyph-name="guillemotright" unicode="&#xbb;" 
d="M500 153v247l300 300l-300 300v248l500 -448v-200zM0 153v247l300 300l-300 300v248l500 -448v-200z" />
    <glyph glyph-name="onequarter" unicode="&#xbc;" horiz-adv-x="1400" 
d="M1100 1500l-800 -1500h-200l800 1500h200zM800 599h80v-280h239v280h80v-599h-80v239h-319v360zM0 1419q121 0 121 81h80v-524h121v-80h-322v80h121v363h-121v80z" />
    <glyph glyph-name="onehalf" unicode="&#xbd;" horiz-adv-x="1400" 
d="M1100 1500l-800 -1500h-200l800 1500h200zM0 1419q121 0 121 81h80v-524h121v-80h-322v80h121v363h-121v80zM1200 0v79h-317q0 159 119 159q198 0 198 198q0 158 -198 158t-198 -158h79q0 79 119 79t119 -79q0 -119 -119 -119q-198 0 -198 -317h396z" />
    <glyph glyph-name="threequarters" unicode="&#xbe;" horiz-adv-x="1400" 
d="M1100 1500l-800 -1500h-200l800 1500h200zM800 599h80v-280h239v280h80v-599h-80v239h-319v360zM80 1339h-80q0 161 201 161t201 -161q0 -80 -80 -120q80 -41 80 -81v-80q0 -161 -201 -161t-201 161h80q0 -81 121 -81t121 81q0 120 -81 120h-80v81h80q81 0 81 80
q0 81 -121 81t-121 -81z" />
    <glyph glyph-name="questiondown" unicode="&#xbf;" 
d="M500 1100q0 -200 -300 -200q-200 0 -200 -500q0 -400 500 -400t500 400h-200q0 -200 -300 -200t-300 200q0 300 100 300q400 0 400 400h-200zM500 1300v200h200v-200h-200z" />
    <glyph glyph-name="Agrave" unicode="&#xc0;" horiz-adv-x="1201" 
d="M0 0v1100q0 400 500 400t500 -400v-1100h-200v600h-600v-600h-200zM800 800v300q0 200 -300 200t-300 -200v-300h600zM300 2100l200 -400h-200l-200 400h200z" />
    <glyph glyph-name="Aacute" unicode="&#xc1;" 
d="M0 0v1100q0 400 500 400t500 -400v-1100h-200v600h-600v-600h-200zM800 800v300q0 200 -300 200t-300 -200v-300h600zM900 2100l-200 -400h-200l200 400h200z" />
    <glyph glyph-name="Acircumflex" unicode="&#xc2;" 
d="M0 0v1100q0 400 500 400t500 -400v-1100h-200v600h-600v-600h-200zM800 800v300q0 200 -300 200t-300 -200v-300h600zM600 2100l200 -400h-200l-200 400h200zM600 2100l-200 -400h-200l200 400h200z" />
    <glyph glyph-name="Atilde" unicode="&#xc3;" 
d="M0 0v1100q0 400 500 400t500 -400v-1100h-200v600h-600v-600h-200zM800 800v300q0 200 -300 200t-300 -200v-300h600zM600 2000l200 -300h-200l-200 300h200zM600 2000l-200 -300h-200l200 300h200zM1000 2000l-200 -300h-200l200 300h200z" />
    <glyph glyph-name="Adieresis" unicode="&#xc4;" 
d="M0 0v1100q0 400 500 400t500 -400v-1100h-200v600h-600v-600h-200zM800 800v300q0 200 -300 200t-300 -200v-300h600zM400 1850q0 -62 -44 -106t-106 -44t-106 44t-44 106t44 106t106 44t106 -44t44 -106zM900 1850q0 -62 -44 -106t-106 -44t-106 44t-44 106t44 106
t106 44t106 -44t44 -106z" />
    <glyph glyph-name="Aring" unicode="&#xc5;" 
d="M0 0v1100q0 400 500 400t500 -400v-1100h-200v600h-600v-600h-200zM800 800v300q0 200 -300 200t-300 -200v-300h600zM742 1750q0 -104 -73 -177t-177 -73t-177 73t-73 177t73 177t177 73t177 -73t73 -177zM492 1900q-62 0 -106 -44t-44 -106t44 -106t106 -44t106 44
t44 106t-44 106t-106 44z" />
    <glyph glyph-name="AE" unicode="&#xc6;" horiz-adv-x="2000" 
d="M0 0v1100q0 400 500 400t500 -400v-1100h-200v600h-600v-600h-200zM800 800v300q0 200 -300 200t-300 -200v-300h600zM800 0v1500h1000v-200h-800v-400h600v-200h-600v-500h800v-200h-1000z" />
    <glyph glyph-name="Ccedilla" unicode="&#xc7;" 
d="M0 400v700q0 400 500 400t500 -400h-200q0 200 -300 200t-300 -200v-700q0 -200 300 -200t300 200h200q0 -400 -500 -400t-500 400zM400 0l200 -200q200 -164 -100 -100l-300 100q200 -300 500 -300q100 0 142 127q13 212 -114 273l-128 100h-200z" />
    <glyph glyph-name="Egrave" unicode="&#xc8;" 
d="M0 0v1500h1000v-200h-800v-400h600v-200h-600v-500h800v-200h-1000zM300 2100l200 -400h-200l-200 400h200z" />
    <glyph glyph-name="Eacute" unicode="&#xc9;" 
d="M0 0v1500h1000v-200h-800v-400h600v-200h-600v-500h800v-200h-1000zM900 2100l-200 -400h-200l200 400h200z" />
    <glyph glyph-name="Ecircumflex" unicode="&#xca;" 
d="M0 0v1500h1000v-200h-800v-400h600v-200h-600v-500h800v-200h-1000zM600 2100l200 -400h-200l-200 400h200zM600 2100l-200 -400h-200l200 400h200z" />
    <glyph glyph-name="Edieresis" unicode="&#xcb;" 
d="M0 0v1500h1000v-200h-800v-400h600v-200h-600v-500h800v-200h-1000zM400 1850q0 -62 -44 -106t-106 -44t-106 44t-44 106t44 106t106 44t106 -44t44 -106zM900 1850q0 -62 -44 -106t-106 -44t-106 44t-44 106t44 106t106 44t106 -44t44 -106z" />
    <glyph glyph-name="Igrave" unicode="&#xcc;" horiz-adv-x="400" 
d="M200 1500v-1500h-200v1500h200zM0 2100l200 -400h-200l-200 400h200z" />
    <glyph glyph-name="Iacute" unicode="&#xcd;" horiz-adv-x="400" 
d="M200 1500v-1500h-200v1500h200zM400 2100l-200 -400h-200l200 400h200z" />
    <glyph glyph-name="Icircumflex" unicode="&#xce;" horiz-adv-x="700" 
d="M400 1500v-1500h-200v1500h200zM400 2100l200 -400h-200l-200 400h200zM400 2100l-200 -400h-200l200 400h200z" />
    <glyph glyph-name="Idieresis" unicode="&#xcf;" horiz-adv-x="900" 
d="M500 1500v-1500h-200v1500h200zM300 1850q0 -62 -44 -106t-106 -44t-106 44t-44 106t44 106t106 44t106 -44t44 -106zM800 1850q0 -62 -44 -106t-106 -44t-106 44t-44 106t44 106t106 44t106 -44t44 -106z" />
    <glyph glyph-name="Eth" unicode="&#xd0;" horiz-adv-x="1300" 
d="M100 1500h500q500 0 500 -400v-700q0 -400 -500 -400h-500v1500zM300 200h300q300 0 300 200v700q0 200 -300 200h-300v-1100zM600 900v-200h-600v200h600z" />
    <glyph glyph-name="Ntilde" unicode="&#xd1;" horiz-adv-x="1201" 
d="M600 2000l200 -300h-200l-200 300h200zM600 2000l-200 -300h-200l200 300h200zM1000 2000l-200 -300h-200l200 300h200zM200 0h-200v1500h200v0l600 -1100v1100h200v-1500h-200v0l-600 1100v-1100z" />
    <glyph glyph-name="Ograve" unicode="&#xd2;" 
d="M0 1100q0 400 500 400t500 -400v-700q0 -400 -500 -400t-500 400v700zM200 400q0 -200 300 -200t300 200v700q0 200 -300 200t-300 -200v-700zM300 2100l200 -400h-200l-200 400h200z" />
    <glyph glyph-name="Oacute" unicode="&#xd3;" 
d="M0 1100q0 400 500 400t500 -400v-700q0 -400 -500 -400t-500 400v700zM200 400q0 -200 300 -200t300 200v700q0 200 -300 200t-300 -200v-700zM900 2100l-200 -400h-200l200 400h200z" />
    <glyph glyph-name="Ocircumflex" unicode="&#xd4;" 
d="M0 1100q0 400 500 400t500 -400v-700q0 -400 -500 -400t-500 400v700zM200 400q0 -200 300 -200t300 200v700q0 200 -300 200t-300 -200v-700zM600 2100l200 -400h-200l-200 400h200zM600 2100l-200 -400h-200l200 400h200z" />
    <glyph glyph-name="Otilde" unicode="&#xd5;" 
d="M0 1100q0 400 500 400t500 -400v-700q0 -400 -500 -400t-500 400v700zM200 400q0 -200 300 -200t300 200v700q0 200 -300 200t-300 -200v-700zM600 2000l200 -300h-200l-200 300h200zM600 2000l-200 -300h-200l200 300h200zM1000 2000l-200 -300h-200l200 300h200z" />
    <glyph glyph-name="Odieresis" unicode="&#xd6;" 
d="M0 1100q0 400 500 400t500 -400v-700q0 -400 -500 -400t-500 400v700zM200 400q0 -200 300 -200t300 200v700q0 200 -300 200t-300 -200v-700zM400 1850q0 -62 -44 -106t-106 -44t-106 44t-44 106t44 106t106 44t106 -44t44 -106zM900 1850q0 -62 -44 -106t-106 -44
t-106 44t-44 106t44 106t106 44t106 -44t44 -106z" />
    <glyph glyph-name="multiply" unicode="&#xd7;" 
d="M76 1083l141 141l708 -707l-142 -141zM76 517l707 707l142 -141l-708 -707z" />
    <glyph glyph-name="Oslash" unicode="&#xd8;" 
d="M0 1100q0 400 500 400t500 -400v-700q0 -400 -500 -400t-500 400v700zM200 400q0 -200 300 -200t300 200v700q0 200 -300 200t-300 -200v-700zM1100 1600l-1100 -1700h-100l1100 1700h100z" />
    <glyph glyph-name="Ugrave" unicode="&#xd9;" 
d="M0 1500v-1100q0 -400 500 -400t500 400v1100h-200v-1100q0 -200 -300 -200t-300 200v1100h-200zM300 2100l200 -400h-200l-200 400h200z" />
    <glyph glyph-name="Uacute" unicode="&#xda;" 
d="M0 1500v-1100q0 -400 500 -400t500 400v1100h-200v-1100q0 -200 -300 -200t-300 200v1100h-200zM900 2100l-200 -400h-200l200 400h200z" />
    <glyph glyph-name="Ucircumflex" unicode="&#xdb;" 
d="M0 1500v-1100q0 -400 500 -400t500 400v1100h-200v-1100q0 -200 -300 -200t-300 200v1100h-200zM600 2100l200 -400h-200l-200 400h200zM600 2100l-200 -400h-200l200 400h200z" />
    <glyph glyph-name="Udieresis" unicode="&#xdc;" 
d="M0 1500v-1100q0 -400 500 -400t500 400v1100h-200v-1100q0 -200 -300 -200t-300 200v1100h-200zM400 1850q0 -62 -44 -106t-106 -44t-106 44t-44 106t44 106t106 44t106 -44t44 -106zM900 1850q0 -62 -44 -106t-106 -44t-106 44t-44 106t44 106t106 44t106 -44t44 -106z
" />
    <glyph glyph-name="Yacute" unicode="&#xdd;" 
d="M0 1500h250l250 -500l247 500h253l-400 -800v-700h-200v700zM900 2100l-200 -400h-200l200 400h200z" />
    <glyph glyph-name="Thorn" unicode="&#xde;" 
d="M200 200v-200h-200v1500h200v-200h300q500 0 500 -400v-200q0 -500 -500 -500h-300zM200 400h300q300 0 300 200v300q0 200 -300 200h-300v-700z" />
    <glyph glyph-name="germandbls" unicode="&#xdf;" 
d="M200 0h-200v1100q0 400 400 400q500 0 500 -400q0 -100 -100 -300q200 -200 200 -300v-100q0 -400 -500 -400h-200v200h200q300 0 300 200q0 300 -300 300h-200v200h200q230 0 200 200q0 200 -300 200q-200 0 -200 -200v-1100z" />
    <glyph glyph-name="agrave" unicode="&#xe0;" 
d="M300 1700l200 -400h-200l-200 400h200zM100 900v200h400q500 0 500 -400v-700h-500q-500 0 -500 300v100q0 300 500 300h300q0 200 -300 200h-400zM797 500h-300q-300 0 -294 -150q-3 -150 297 -150h300z" />
    <glyph glyph-name="aacute" unicode="&#xe1;" 
d="M900 1700l-200 -400h-200l200 400h200zM100 900v200h400q500 0 500 -400v-700h-500q-500 0 -500 300v100q0 300 500 300h300q0 200 -300 200h-400zM797 500h-300q-300 0 -294 -150q-3 -150 297 -150h300z" />
    <glyph glyph-name="acircumflex" unicode="&#xe2;" 
d="M600 1700l200 -400h-200l-200 400h200zM600 1700l-200 -400h-200l200 400h200zM100 900v200h400q500 0 500 -400v-700h-500q-500 0 -500 300v100q0 300 500 300h300q0 200 -300 200h-400zM797 500h-300q-300 0 -294 -150q-3 -150 297 -150h300z" />
    <glyph glyph-name="atilde" unicode="&#xe3;" 
d="M600 1600l200 -300h-200l-200 300h200zM600 1600l-200 -300h-200l200 300h200zM1000 1600l-200 -300h-200l200 300h200zM100 900v200h400q500 0 500 -400v-700h-500q-500 0 -500 300v100q0 300 500 300h300q0 200 -300 200h-400zM797 500h-300q-300 0 -294 -150
q-3 -150 297 -150h300z" />
    <glyph glyph-name="adieresis" unicode="&#xe4;" 
d="M400 1450q0 -62 -44 -106t-106 -44t-106 44t-44 106t44 106t106 44t106 -44t44 -106zM900 1450q0 -62 -44 -106t-106 -44t-106 44t-44 106t44 106t106 44t106 -44t44 -106zM100 900v200h400q500 0 500 -400v-700h-500q-500 0 -500 300v100q0 300 500 300h300
q0 200 -300 200h-400zM797 500h-300q-300 0 -294 -150q-3 -150 297 -150h300z" />
    <glyph glyph-name="aring" unicode="&#xe5;" 
d="M739 1550q0 -104 -73 -177t-177 -73t-177 73t-73 177t73 177t177 73t177 -73t73 -177zM489 1700q-62 0 -106 -44t-44 -106t44 -106t106 -44t106 44t44 106t-44 106t-106 44zM100 900v200h400q500 0 500 -400v-700h-500q-500 0 -500 300v100q0 300 500 300h300
q0 200 -300 200h-400zM797 500h-300q-300 0 -294 -150q-3 -150 297 -150h300z" />
    <glyph glyph-name="ae" unicode="&#xe6;" horiz-adv-x="2000" 
d="M200 800h-200q0 300 500 300t500 -400v-700h-500q-500 0 -500 300v100q0 300 500 300h300q0 200 -300 200t-300 -100zM797 500h-300q-300 0 -294 -150q-3 -150 297 -150h300zM1600 300h200q0 -300 -500 -300t-500 400v300q0 400 500 400t500 -300v-100q0 -300 -500 -300
h-300q0 -200 300 -200t300 100zM1003 600h300q300 0 294 150q3 150 -297 150t-298 -150z" />
    <glyph glyph-name="ccedilla" unicode="&#xe7;" 
d="M0 400v300q0 400 500 400t500 -400h-200q0 200 -300 200t-300 -200v-300q0 -200 300 -200t300 200h200q0 -400 -500 -400t-500 400zM400 0q267 -200 167 -346l-167 46l-200 200l61 -233q139 -167 339 -167q200 133 152 300l-152 200h-200z" />
    <glyph glyph-name="egrave" unicode="&#xe8;" 
d="M300 1700l200 -400h-200l-200 400h200zM900 200v-200h-400q-500 0 -500 400v300q0 400 500 400t500 -300v-100q0 -300 -500 -300h-300q0 -200 300 -200h400zM203 600h300q300 0 294 150q3 150 -297 150t-298 -150z" />
    <glyph glyph-name="eacute" unicode="&#xe9;" 
d="M900 1700l-200 -400h-200l200 400h200zM900 200v-200h-400q-500 0 -500 400v300q0 400 500 400t500 -300v-100q0 -300 -500 -300h-300q0 -200 300 -200h400zM203 600h300q300 0 294 150q3 150 -297 150t-298 -150z" />
    <glyph glyph-name="ecircumflex" unicode="&#xea;" 
d="M600 1700l200 -400h-200l-200 400h200zM600 1700l-200 -400h-200l200 400h200zM900 200v-200h-400q-500 0 -500 400v300q0 400 500 400t500 -300v-100q0 -300 -500 -300h-300q0 -200 300 -200h400zM203 600h300q300 0 294 150q3 150 -297 150t-298 -150z" />
    <glyph glyph-name="edieresis" unicode="&#xeb;" 
d="M400 1450q0 -62 -44 -106t-106 -44t-106 44t-44 106t44 106t106 44t106 -44t44 -106zM900 1450q0 -62 -44 -106t-106 -44t-106 44t-44 106t44 106t106 44t106 -44t44 -106zM900 200v-200h-400q-500 0 -500 400v300q0 400 500 400t500 -300v-100q0 -300 -500 -300h-300
q0 -200 300 -200h400zM203 600h300q300 0 294 150q3 150 -297 150t-298 -150z" />
    <glyph glyph-name="igrave" unicode="&#xec;" horiz-adv-x="400" 
d="M200 1100v-1100h-200v1100h200zM0 1700l200 -400h-200l-200 400h200z" />
    <glyph glyph-name="iacute" unicode="&#xed;" horiz-adv-x="400" 
d="M200 1100v-1100h-200v1100h200zM400 1700l-200 -400h-200l200 400h200z" />
    <glyph glyph-name="icircumflex" unicode="&#xee;" horiz-adv-x="700" 
d="M400 1100v-1100h-200v1100h200zM400 1700l200 -400h-200l-200 400h200zM400 1700l-200 -400h-200l200 400h200z" />
    <glyph glyph-name="idieresis" unicode="&#xef;" horiz-adv-x="900" 
d="M500 1100v-1100h-200v1100h200zM300 1450q0 -62 -44 -106t-106 -44t-106 44t-44 106t44 106t106 44t106 -44t44 -106zM800 1450q0 -62 -44 -106t-106 -44t-106 44t-44 106t44 106t106 44t106 -44t44 -106z" />
    <glyph glyph-name="eth" unicode="&#xf0;" 
d="M500 900h300v200q0 200 -300 200v200q500 0 500 -400v-700q0 -400 -500 -400t-500 400v100q0 400 500 400zM200 500v-100q0 -200 300 -200t300 200v300h-300q-300 0 -300 -200z" />
    <glyph glyph-name="ntilde" unicode="&#xf1;" 
d="M200 0h-200v1100h500q500 0 500 -400v-700h-200v700q0 200 -300 200h-300v-900zM600 1600l200 -300h-200l-200 300h200zM600 1600l-200 -300h-200l200 300h200zM1000 1600l-200 -300h-200l200 300h200z" />
    <glyph glyph-name="ograve" unicode="&#xf2;" 
d="M300 1700l200 -400h-200l-200 400h200zM0 700q0 400 500 400t500 -400v-300q0 -400 -500 -400t-500 400v300zM200 400q0 -200 300 -200t300 200v300q0 200 -300 200t-300 -200v-300z" />
    <glyph glyph-name="oacute" unicode="&#xf3;" 
d="M900 1700l-200 -400h-200l200 400h200zM0 700q0 400 500 400t500 -400v-300q0 -400 -500 -400t-500 400v300zM200 400q0 -200 300 -200t300 200v300q0 200 -300 200t-300 -200v-300z" />
    <glyph glyph-name="ocircumflex" unicode="&#xf4;" 
d="M0 700q0 400 500 400t500 -400v-300q0 -400 -500 -400t-500 400v300zM200 400q0 -200 300 -200t300 200v300q0 200 -300 200t-300 -200v-300zM600 1700l200 -400h-200l-200 400h200zM600 1700l-200 -400h-200l200 400h200z" />
    <glyph glyph-name="otilde" unicode="&#xf5;" 
d="M0 700q0 400 500 400t500 -400v-300q0 -400 -500 -400t-500 400v300zM200 400q0 -200 300 -200t300 200v300q0 200 -300 200t-300 -200v-300zM600 1600l200 -300h-200l-200 300h200zM600 1600l-200 -300h-200l200 300h200zM1000 1600l-200 -300h-200l200 300h200z" />
    <glyph glyph-name="odieresis" unicode="&#xf6;" 
d="M0 700q0 400 500 400t500 -400v-300q0 -400 -500 -400t-500 400v300zM200 400q0 -200 300 -200t300 200v300q0 200 -300 200t-300 -200v-300zM400 1450q0 -62 -44 -106t-106 -44t-106 44t-44 106t44 106t106 44t106 -44t44 -106zM900 1450q0 -62 -44 -106t-106 -44
t-106 44t-44 106t44 106t106 44t106 -44t44 -106z" />
    <glyph glyph-name="divide" unicode="&#xf7;" horiz-adv-x="1100" 
d="M600 1150q0 -62 -44 -106t-105 -44q-62 0 -106 44t-44 106q0 61 44 105t106 44q61 0 105 -44t44 -105zM602 451q0 -63 -44 -107t-107 -44t-107 44t-44 107t44 107t107 44t107 -44t44 -107zM900 900v-200h-900v200h900z" />
    <glyph glyph-name="oslash" unicode="&#xf8;" 
d="M0 700q0 400 500 400t500 -400v-300q0 -400 -500 -400t-500 400v300zM200 400q0 -200 300 -200t300 200v300q0 200 -300 200t-300 -200v-300zM1100 1200l-1100 -1300h-100l1100 1300h100z" />
    <glyph glyph-name="ugrave" unicode="&#xf9;" 
d="M0 1100v-700q0 -400 500 -400t500 400v700h-200v-700q0 -200 -300 -200t-300 200v700h-200zM300 1700l200 -400h-200l-200 400h200z" />
    <glyph glyph-name="uacute" unicode="&#xfa;" 
d="M0 1100v-700q0 -400 500 -400t500 400v700h-200v-700q0 -200 -300 -200t-300 200v700h-200zM900 1700l-200 -400h-200l200 400h200z" />
    <glyph glyph-name="ucircumflex" unicode="&#xfb;" 
d="M0 1100v-700q0 -400 500 -400t500 400v700h-200v-700q0 -200 -300 -200t-300 200v700h-200zM600 1700l200 -400h-200l-200 400h200zM600 1700l-200 -400h-200l200 400h200z" />
    <glyph glyph-name="udieresis" unicode="&#xfc;" 
d="M0 1100v-700q0 -400 500 -400t500 400v700h-200v-700q0 -200 -300 -200t-300 200v700h-200zM400 1450q0 -62 -44 -106t-106 -44t-106 44t-44 106t44 106t106 44t106 -44t44 -106zM900 1450q0 -62 -44 -106t-106 -44t-106 44t-44 106t44 106t106 44t106 -44t44 -106z" />
    <glyph glyph-name="yacute" unicode="&#xfd;" 
d="M0 1100h200v-700q0 -200 300 -200h300v900h200v-1100q0 -400 -500 -400h-300v200h300q300 0 300 200h-300q-500 0 -500 400v700zM900 1700l-200 -400h-200l200 400h200z" />
    <glyph glyph-name="thorn" unicode="&#xfe;" 
d="M200 0v-400h-200v1900h200v-400h300q500 0 500 -400v-200q0 -500 -500 -500h-300zM200 200h300q300 0 300 200v300q0 200 -300 200h-300v-700z" />
    <glyph glyph-name="ydieresis" unicode="&#xff;" 
d="M0 1100h200v-700q0 -200 300 -200h300v900h200v-1100q0 -400 -500 -400h-300v200h300q300 0 300 200h-300q-500 0 -500 400v700zM400 1450q0 -62 -44 -106t-106 -44t-106 44t-44 106t44 106t106 44t106 -44t44 -106zM900 1450q0 -62 -44 -106t-106 -44t-106 44t-44 106
t44 106t106 44t106 -44t44 -106z" />
    <glyph glyph-name="OE" unicode="&#x152;" horiz-adv-x="1999" 
d="M0 1100q0 400 500 400t500 -400v-700q0 -400 -500 -400t-500 400v700zM200 400q0 -200 300 -200t300 200v700q0 200 -300 200t-300 -200v-700zM800 0v1500h1000v-200h-800v-400h600v-200h-600v-500h800v-200h-1000z" />
    <glyph glyph-name="oe" unicode="&#x153;" horiz-adv-x="1999" 
d="M0 700q0 400 500 400t500 -400v-300q0 -400 -500 -400t-500 400v300zM200 400q0 -200 300 -200t300 200v300q0 200 -300 200t-300 -200v-300zM1702 204v-200h-400q-500 0 -500 400v300q0 400 500 400t500 -300v-100q0 -300 -500 -300h-300q0 -200 300 -200h400zM1005 604
h300q300 0 294 150q3 150 -297 150t-298 -150z" />
    <glyph glyph-name="Scaron" unicode="&#x160;" 
d="M800 1100q0 200 -300 200t-300 -200t300 -200q500 0 500 -400v-100q0 -400 -500 -400t-500 400h200q0 -200 300 -200t300 200v100q0 200 -300 200q-500 0 -500 300v100q0 400 500 400t500 -400h-200zM200 2000h200l200 -300h-200zM600 2000h200l-200 -300h-200z" />
    <glyph glyph-name="scaron" unicode="&#x161;" horiz-adv-x="1198" 
d="M200 1600h200l200 -300h-200zM600 1600h200l-200 -300h-200zM800 800q0 100 -300 100t-300 -147q0 -100 300 -100q500 0 500 -301q0 -352 -500 -352t-500 300h200q0 -100 300 -100t300 143q0 157 -300 110q-500 0 -500 300q0 347 500 347t500 -300h-200z" />
    <glyph glyph-name="Ydieresis" unicode="&#x178;" 
d="M400 1850q0 -62 -44 -106t-106 -44t-106 44t-44 106t44 106t106 44t106 -44t44 -106zM900 1850q0 -62 -44 -106t-106 -44t-106 44t-44 106t44 106t106 44t106 -44t44 -106zM0 1500h250l250 -500l247 500h253l-400 -800v-700h-200v700z" />
    <glyph glyph-name="Zcaron" unicode="&#x17d;" 
d="M200 2000h200l200 -300h-200zM600 2000h200l-200 -300h-200zM0 1500h1000v-300l-800 -1000h800v-200h-1000v300l800 1000h-800v200z" />
    <glyph glyph-name="zcaron" unicode="&#x17e;" 
d="M200 1600h200l200 -300h-200zM600 1600h200l-200 -300h-200zM0 1100h1000v-300l-800 -600h800v-200h-1000v300l800 600h-800v200z" />
    <glyph glyph-name="florin" unicode="&#x192;" horiz-adv-x="1101" 
d="M300 900h-200v200h200q0 400 500 400h100v-200h-100q-300 0 -300 -200h300v-200h-300v-900q0 -400 -500 -400v200q300 0 300 200v900z" />
    <glyph glyph-name="circumflex" unicode="&#x2c6;" horiz-adv-x="1024" 
 />
    <glyph glyph-name="tilde" unicode="&#x2dc;" horiz-adv-x="1024" 
 />
    <glyph glyph-name="endash" unicode="&#x2013;" horiz-adv-x="1000" 
d="M800 1100v-200h-800v200h800z" />
    <glyph glyph-name="emdash" unicode="&#x2014;" horiz-adv-x="1400" 
d="M1200 1100v-200h-1200v200h1200z" />
    <glyph glyph-name="quoteleft" unicode="&#x2018;" horiz-adv-x="500" 
d="M300 1346q0 -146 -147 -146q-146 0 -146 146v147l-7 206h73l80 -206q147 0 147 -147z" />
    <glyph glyph-name="quoteright" unicode="&#x2019;" horiz-adv-x="500" 
d="M0 1353q0 146 147 146q146 0 146 -146v-147l7 -206h-73l-80 206q-147 0 -147 147z" />
    <glyph glyph-name="quotesinglbase" unicode="&#x201a;" horiz-adv-x="500" 
d="M0 354q0 146 147 146q146 0 146 -146v-147l7 -206h-73l-80 206q-147 0 -147 147z" />
    <glyph glyph-name="quotedblleft" unicode="&#x201c;" horiz-adv-x="1000" 
d="M300 1346q0 -146 -147 -146q-146 0 -146 146v147l-7 206h73l80 -206q147 0 147 -147zM800 1346q0 -146 -147 -146q-146 0 -146 146v147l-7 206h73l80 -206q147 0 147 -147z" />
    <glyph glyph-name="quotedblright" unicode="&#x201d;" horiz-adv-x="1000" 
d="M0 1353q0 146 147 146q146 0 146 -146v-147l7 -206h-73l-80 206q-147 0 -147 147zM500 1353q0 146 147 146q146 0 146 -146v-147l7 -206h-73l-80 206q-147 0 -147 147z" />
    <glyph glyph-name="quotedblbase" unicode="&#x201e;" horiz-adv-x="1000" 
d="M0 353q0 146 147 146q146 0 146 -146v-147l7 -206h-73l-80 206q-147 0 -147 147zM500 353q0 146 147 146q146 0 146 -146v-147l7 -206h-73l-80 206q-147 0 -147 147z" />
    <glyph glyph-name="dagger" unicode="&#x2020;" horiz-adv-x="1000" 
d="M500 1500v-400h300v-200h-300v-900h-200v900h-300v200h300v400h200z" />
    <glyph glyph-name="daggerdbl" unicode="&#x2021;" horiz-adv-x="1000" 
d="M500 1500v-400h300v-200h-300v-300h300v-200h-300v-400h-200v400h-300v200h300v300h-300v200h300v400h200z" />
    <glyph glyph-name="bullet" unicode="&#x2022;" horiz-adv-x="700" 
d="M500 750q0 -104 -73 -177t-177 -73t-177 73t-73 177t73 177t177 73t177 -73t73 -177z" />
    <glyph glyph-name="ellipsis" unicode="&#x2026;" horiz-adv-x="1300" 
d="M300 149q0 -63 -44 -107t-107 -44t-107 44t-44 107t44 107t107 44t107 -44t44 -107zM702 149q0 -63 -44 -107t-107 -44t-107 44t-44 107t44 107t107 44t107 -44t44 -107zM1102 149q0 -63 -44 -107t-107 -44t-107 44t-44 107t44 107t107 44t107 -44t44 -107z" />
    <glyph glyph-name="perthousand" unicode="&#x2030;" horiz-adv-x="1703" 
d="M1000 1500l-800 -1500h-200l800 1500h200zM400 1300q0 -83 -58.5 -141.5t-141.5 -58.5t-141.5 58.5t-58.5 141.5t58.5 141.5t141.5 58.5t141.5 -58.5t58.5 -141.5zM200 1400q-41 0 -70.5 -29.5t-29.5 -70.5t29.5 -70.5t70.5 -29.5t70.5 29.5t29.5 70.5t-29.5 70.5
t-70.5 29.5zM1000 200q0 -83 -58.5 -141.5t-141.5 -58.5t-141.5 58.5t-58.5 141.5t58.5 141.5t141.5 58.5t141.5 -58.5t58.5 -141.5zM800 300q-41 0 -70.5 -29.5t-29.5 -70.5t29.5 -70.5t70.5 -29.5t70.5 29.5t29.5 70.5t-29.5 70.5t-70.5 29.5zM1500 200
q0 -83 -58.5 -141.5t-141.5 -58.5t-141.5 58.5t-58.5 141.5t58.5 141.5t141.5 58.5t141.5 -58.5t58.5 -141.5zM1300 300q-41 0 -70.5 -29.5t-29.5 -70.5t29.5 -70.5t70.5 -29.5t70.5 29.5t29.5 70.5t-29.5 70.5t-70.5 29.5z" />
    <glyph glyph-name="guilsinglleft" unicode="&#x2039;" horiz-adv-x="631" 
 />
    <glyph glyph-name="guilsinglright" unicode="&#x203a;" horiz-adv-x="631" 
 />
    <glyph glyph-name="Euro" unicode="&#x20ac;" horiz-adv-x="1300" 
d="M100 400v700q0 400 500 400t500 -400h-200q0 200 -300 200t-300 -200v-700q0 -200 300 -200t300 200h200q0 -400 -500 -400t-500 400zM800 944v-100h-800v100h800zM800 665v-100h-800v100h800z" />
    <glyph glyph-name="trademark" unicode="&#x2122;" horiz-adv-x="1497" 
 />
  </font>
</defs>
</svg>
